<?xml version="1.0" encoding="UTF-8" standalone="no"?>
<!DOCTYPE svg PUBLIC "-//W3C//DTD SVG 1.1//EN" "http://www.w3.org/Graphics/SVG/1.1/DTD/svg11.dtd">
<svg width="100%" height="100%" viewBox="0 0 745 745" version="1.1" xmlns="http://www.w3.org/2000/svg" xmlns:xlink="http://www.w3.org/1999/xlink" xml:space="preserve" xmlns:serif="http://www.serif.com/" style="fill-rule:evenodd;clip-rule:evenodd;stroke-linejoin:round;stroke-miterlimit:2;">
    <g transform="matrix(5.55556,0,0,5.55556,0,0)">
        <g transform="matrix(3.68364,4.15873,-4.15873,3.68364,66.2851,-20.2082)">
            <path d="M12.008,9.597C12.033,9.597 12.058,9.596 12.083,9.596C15.168,9.596 17.706,12.135 17.706,15.219C17.706,18.304 15.168,20.843 12.083,20.843C12.058,20.843 12.033,20.842 12.008,20.842C8.952,20.801 6.46,18.276 6.46,15.22C6.46,12.163 8.952,9.638 12.008,9.597ZM0.154,8.717L3.174,12.291C3.295,12.436 3.475,12.519 3.664,12.519C3.82,12.519 3.97,12.462 4.087,12.359C8.972,7.98 15.057,7.98 19.927,12.359C20.044,12.462 20.195,12.52 20.352,12.52C20.541,12.52 20.721,12.436 20.843,12.291L23.849,8.717C24.075,8.447 24.041,8.04 23.774,7.811C16.674,1.607 7.312,1.607 0.219,7.811C-0.043,8.044 -0.073,8.449 0.154,8.717Z" style="fill:none;fill-rule:nonzero;stroke:rgb(30,62,211);stroke-width:0.9px;"/>
        </g>
    </g>
</svg>
